<svg xmlns="http://www.w3.org/2000/svg" viewBox="0 0 78 70.6">
  <title>logo-gac-couleur</title>
  <path d="M65.36,6a61.49,61.49,0,0,0-8.45-3.34A58.72,58.72,0,0,0,39.16,0h-.87A59.93,59.93,0,0,0,20.48,3a60.82,60.82,0,0,0-9.27,3.68c-1,.54-2.2,1.21-3.47,2-1.64,1-3.47,2.23-5.5,3.66-.51.34-1,.7-1.51,1.05v3.79a64.52,64.52,0,0,1,11.89-5.71A72.06,72.06,0,0,1,25.25,8.22,83.26,83.26,0,0,1,38.33,7.16a92.63,92.63,0,0,1,13.46.91A68.4,68.4,0,0,1,64,10.85,85,85,0,0,1,77.6,17.12V13.33q-4.62-3-8-5Q67.15,6.88,65.36,6Z" fill="#f7ae32"/>
  <path d="M53.08,62.38a86.93,86.93,0,0,1-13.75,1.07h-1a95.76,95.76,0,0,1-11.77-.91,67.85,67.85,0,0,1-12.25-2.78A85.32,85.32,0,0,1,.73,53.48v3.8q5,3.26,8.46,5.28c1.44.83,2.7,1.51,3.78,2a61.37,61.37,0,0,0,8.44,3.34A58.81,58.81,0,0,0,39.16,70.6h.07a60,60,0,0,0,18.62-2.95A60.23,60.23,0,0,0,67.11,64q1.36-.7,3-1.71,2.64-1.59,6-3.94l1.51-1v-3.8a64.29,64.29,0,0,1-11.9,5.71A71.72,71.72,0,0,1,53.08,62.38Z" fill="#004f6b"/>
  <g>
    <path d="M11.81,33.3h6.86v.52c0,1.73-1.44,2-2.88,2H9.9c-2.79,0-3.51-.66-3.51-3.73V29.82c0-3.06.72-3.73,3.51-3.73h6c1.76,0,2.78.22,2.78,2h5.42v-.57c0-3.48-.87-5.73-7.13-5.73H8.65c-5,0-7.93,1.23-7.93,6.47V33.6c0,5.24,3,6.47,7.93,6.47h6.64c6.21,0,8.9-.24,8.9-5.39V29.6H11.81Z" fill="#222"/>
    <path d="M35.5,22l-9.75,17.9h6.17l1.61-3.17H44.72l1.71,3.17h6.14L42.68,22Zm.1,10.88,3.47-6.72,3.59,6.72Z" fill="#222"/>
    <path d="M68.85,35.48H63c-2.61,0-3.16-1-3.16-3.59V30c0-2.23.55-3.59,3.46-3.59h6c1.65,0,2.59.38,2.59,1.66v.49h5.52c.05-5.07-1-6.74-8.83-6.74H62.07c-5,0-7.93,1.23-7.93,6.47V33.6c0,5.24,3,6.47,7.93,6.47H71c5.55,0,6.64-2.37,6.64-5.39V33H72.08C72.08,35.23,71.34,35.48,68.85,35.48Z" fill="#222"/>
  </g>
  <g>
    <polygon points="0 44.47 2.5 44.47 2.5 51.16 3.38 51.16 3.38 44.47 5.89 44.47 5.89 43.77 0 43.77 0 44.47" fill="#999"/>
    <polygon points="8.47 47.66 12.45 47.66 12.45 47.03 8.47 47.03 8.47 44.47 12.77 44.47 12.77 43.77 7.59 43.77 7.59 51.16 12.85 51.16 12.85 50.47 8.47 50.47 8.47 47.66" fill="#999"/>
    <path d="M18,50.72C16,50.72,15.3,49,15.3,47.47S16,44.22,18,44.22a2.09,2.09,0,0,1,2.15,1.56H21A2.87,2.87,0,0,0,18,43.58c-2.08,0-3.53,1.6-3.53,3.89A3.56,3.56,0,0,0,18,51.35,3,3,0,0,0,21,48.65h-.86A2.21,2.21,0,0,1,18,50.72Z" fill="#999"/>
    <polygon points="28.04 46.91 23.95 46.91 23.95 43.77 23.07 43.77 23.07 51.16 23.95 51.16 23.95 47.61 28.04 47.61 28.04 51.16 28.93 51.16 28.93 43.77 28.04 43.77 28.04 46.91" fill="#999"/>
    <polygon points="36.4 49.59 36.01 49.59 35.92 49.47 32.38 43.77 31.31 43.77 31.31 51.16 32.13 51.16 32.13 45.36 32.52 45.36 32.62 45.48 36.14 51.16 37.22 51.16 37.22 43.77 36.4 43.77 36.4 49.59" fill="#999"/>
    <path d="M42.74,43.58a3.57,3.57,0,0,0-3.53,3.89,3.55,3.55,0,1,0,7.06,0C46.27,45.18,44.82,43.58,42.74,43.58Zm0,7.14c-2,0-2.64-1.75-2.64-3.25s.69-3.25,2.64-3.25,2.65,1.75,2.65,3.25S44.7,50.72,42.74,50.72Z" fill="#999"/>
    <polygon points="49.2 43.77 48.32 43.77 48.32 51.16 53.21 51.16 53.21 50.47 49.2 50.47 49.2 43.77" fill="#999"/>
    <path d="M58.06,43.58c-2.08,0-3.53,1.6-3.53,3.89a3.55,3.55,0,1,0,7.06,0C61.59,45.18,60.14,43.58,58.06,43.58Zm0,7.14c-2,0-2.65-1.75-2.65-3.25s.69-3.25,2.65-3.25S60.7,46,60.7,47.47,60,50.72,58.06,50.72Z" fill="#999"/>
    <path d="M67.15,48.06h2.11v.25a2.23,2.23,0,0,1-2.4,2.41h-.06c-2,0-2.64-1.75-2.64-3.25s.69-3.25,2.65-3.25A2.16,2.16,0,0,1,69,45.78h.85a2.92,2.92,0,0,0-3.09-2.2,3.57,3.57,0,0,0-3.54,3.89,3.56,3.56,0,0,0,3.54,3.88,2.62,2.62,0,0,0,2.19-1l.32-.36.27,1.2H70V47.5H67.15Z" fill="#999"/>
    <polygon points="74.84 47.55 72.61 43.77 71.59 43.77 74.36 48.25 74.36 51.16 75.25 51.16 75.25 48.25 78 43.77 77.04 43.77 74.84 47.55" fill="#999"/>
  </g>
</svg>
